<?xml version="1.0" encoding="UTF-8" standalone="no"?>
<!-- Created with Inkscape (http://www.inkscape.org/) -->

<svg
   width="25.708473mm"
   height="26.6mm"
   viewBox="0 0 25.708473 26.6"
   version="1.1"
   id="svg4514"
   inkscape:version="1.2 (dc2aeda, 2022-05-15)"
   sodipodi:docname="logo_no_colours.svg"
   xmlns:inkscape="http://www.inkscape.org/namespaces/inkscape"
   xmlns:sodipodi="http://sodipodi.sourceforge.net/DTD/sodipodi-0.dtd"
   xmlns="http://www.w3.org/2000/svg"
   xmlns:svg="http://www.w3.org/2000/svg">
  <sodipodi:namedview
     id="namedview4516"
     pagecolor="#ffffff"
     bordercolor="#000000"
     borderopacity="0.25"
     inkscape:showpageshadow="2"
     inkscape:pageopacity="0.0"
     inkscape:pagecheckerboard="0"
     inkscape:deskcolor="#d1d1d1"
     inkscape:document-units="mm"
     showgrid="false"
     inkscape:zoom="0.2102413"
     inkscape:cx="-78.481249"
     inkscape:cy="116.53276"
     inkscape:window-width="1920"
     inkscape:window-height="1027"
     inkscape:window-x="1920"
     inkscape:window-y="71"
     inkscape:window-maximized="1"
     inkscape:current-layer="layer1" />
  <defs
     id="defs4511" />
  <g
     inkscape:label="Layer 1"
     inkscape:groupmode="layer"
     id="layer1"
     transform="translate(-125.57797,-118.83982)">
    <g
       id="g2132"
       transform="matrix(0.24648583,0,0,0.24675325,125.57797,118.83982)">
    <rect
   class="o-logo__bg"
   width="104.3"
   height="107.8"
   id="rect2080"
   x="0"
   y="0" />

    <g
   id="g2130">
      <polygon
   class="o-logo__letter"
   points="42.3,67.8 42.3,60.5 47,67.8 49,67.8 49,55.9 46.7,55.9 46.7,63.2 42.1,55.9 40.1,55.9 40.1,67.8 "
   id="polygon2082"
   style="fill:#ffffff;fill-opacity:1;stroke:none" />

      <rect
   x="61.299999"
   y="55.900002"
   class="o-logo__letter"
   width="2.3"
   height="11.9"
   id="rect2084"
   style="fill:#ffffff;fill-opacity:1;stroke:none" />

      <path
   class="o-logo__letter"
   d="M 70.4,60.9 69,60.7 c -0.5,-0.1 -0.9,-0.3 -1.1,-0.5 -0.2,-0.2 -0.3,-0.5 -0.3,-0.9 0,-0.8 0.6,-1.5 1.8,-1.5 0.8,0 1.7,0.1 2.4,0.8 l 1.4,-1.5 c -1,-1 -2.2,-1.4 -3.8,-1.4 -2.5,0 -4.1,1.5 -4.1,3.6 0,1 0.3,1.8 0.8,2.3 0.5,0.5 1.3,0.8 2.3,1 l 1.4,0.2 c 0.5,0.1 0.8,0.2 1,0.4 0.2,0.2 0.4,0.6 0.4,1 0,1 -0.7,1.5 -2.1,1.5 -1.1,0 -2.1,-0.3 -2.8,-1 l -1.5,1.5 c 1.1,1.2 2.5,1.6 4.3,1.6 2.4,0 4.3,-1.3 4.3,-3.6 0,-1.1 -0.3,-1.9 -0.9,-2.5 -0.4,-0.4 -1,-0.7 -2.1,-0.8 z"
   id="path2086"
   style="fill:#ffffff;fill-opacity:1;stroke:none" />

      <path
   class="o-logo__letter"
   d="m 59.5,64.2 h -2.3 c -0.2,1 -0.8,1.7 -2,1.7 -0.6,0 -1.1,-0.2 -1.5,-0.6 -0.4,-0.5 -0.6,-1.1 -0.6,-3.4 0,-2.3 0.1,-2.9 0.6,-3.4 0.3,-0.4 0.8,-0.6 1.5,-0.6 1.1,0 1.7,0.7 2,1.7 h 2.3 c -0.4,-2.5 -2.1,-3.8 -4.3,-3.8 -1.3,0 -2.3,0.5 -3.1,1.3 -1.2,1.2 -1.1,2.7 -1.1,4.7 0,2.1 0,3.5 1.1,4.8 0.8,0.8 1.9,1.3 3.1,1.3 2.1,0 3.8,-1.3 4.3,-3.7 z"
   id="path2088"
   style="fill:#ffffff;fill-opacity:1;stroke:none" />

      <polygon
   class="o-logo__letter"
   points="11.6,58 17,58 17,55.9 9.3,55.9 9.3,67.8 11.6,67.8 11.6,63 16.2,63 16.2,60.9 11.6,60.9 "
   id="polygon2090"
   style="fill:#ffffff;fill-opacity:1;stroke:none" />

      <path
   class="o-logo__letter"
   d="M 27,59.6 C 27,57.6 25.6,56 23.2,56 h -4.6 v 11.9 h 2.3 v -4.7 h 1.6 l 2.3,4.7 h 2.6 L 24.8,62.8 C 26,62.3 27,61.2 27,59.6 Z m -4.2,1.5 H 20.7 V 58 h 2.1 c 1,0 1.7,0.7 1.7,1.6 0,0.9 -0.7,1.5 -1.7,1.5 z"
   id="path2092"
   style="fill:#ffffff;fill-opacity:1;stroke:none" />

      <path
   class="o-logo__letter"
   d="m 31.4,65.7 h 4.1 l 0.7,2.1 h 2.4 L 34.3,55.9 h -1.8 l -4.2,11.9 h 2.4 z m 2.1,-6.3 1.4,4.3 H 32 Z"
   id="path2094"
   style="fill:#ffffff;fill-opacity:1;stroke:none" />

      <path
   class="o-logo__letter"
   d="m 13.4,83.1 c 2.2,0 3.9,-1.3 4.3,-3.8 h -2.3 c -0.2,1 -0.8,1.7 -2,1.7 -0.6,0 -1.1,-0.2 -1.5,-0.6 -0.4,-0.5 -0.6,-1.1 -0.6,-3.4 0,-2.3 0.1,-2.9 0.6,-3.4 0.3,-0.4 0.8,-0.6 1.5,-0.6 1.1,0 1.7,0.7 2,1.7 h 2.3 c -0.4,-2.5 -2.1,-3.8 -4.3,-3.8 -1.3,0 -2.3,0.5 -3.1,1.3 -1.2,1.2 -1.2,2.7 -1.2,4.7 0,2.1 0,3.5 1.2,4.7 0.8,1 1.8,1.5 3.1,1.5 z"
   id="path2096"
   style="fill:#ffffff;fill-opacity:1;stroke:none" />

      <path
   class="o-logo__letter"
   d="m 28.4,83 -2.6,-5.1 c 1.1,-0.4 2.1,-1.5 2.1,-3.1 0,-2 -1.4,-3.6 -3.8,-3.6 H 19.5 V 83 h 2.3 v -4.7 h 1.6 L 25.7,83 Z M 24,76.3 H 21.9 V 73.2 H 24 c 1,0 1.7,0.7 1.7,1.6 -0.1,0.9 -0.7,1.5 -1.7,1.5 z"
   id="path2098"
   style="fill:#ffffff;fill-opacity:1;stroke:none" />

      <rect
   x="30.299999"
   y="71.099998"
   class="o-logo__letter"
   width="2.3"
   height="11.9"
   id="rect2100"
   style="fill:#ffffff;fill-opacity:1;stroke:none" />

      <path
   class="o-logo__letter"
   d="m 40.8,79.3 c -0.2,1 -0.8,1.7 -2,1.7 -0.6,0 -1.1,-0.2 -1.5,-0.6 -0.4,-0.5 -0.6,-1.1 -0.6,-3.4 0,-2.3 0.1,-2.9 0.6,-3.4 0.3,-0.4 0.8,-0.6 1.5,-0.6 1.2,0 1.7,0.7 2,1.7 h 2.3 C 42.7,72.3 41,71 38.9,71 c -1.3,0 -2.3,0.5 -3.1,1.3 -1.2,1.2 -1.2,2.7 -1.2,4.7 0,2.1 0,3.5 1.2,4.7 0.8,0.8 1.9,1.3 3.1,1.3 2.2,0 3.9,-1.3 4.3,-3.8 h -2.4 z"
   id="path2102"
   style="fill:#ffffff;fill-opacity:1;stroke:none" />

      <polygon
   class="o-logo__letter"
   points="47.6,79.4 49.1,77.6 52.1,83 54.7,83 50.6,75.8 54.5,71.1 51.7,71.1 47.6,76.3 47.6,71.1 45.3,71.1 45.3,83 47.6,83 "
   id="polygon2104"
   style="fill:#ffffff;fill-opacity:1;stroke:none" />

      <polygon
   class="o-logo__letter"
   points="16.6,42.1 16.6,40.5 8.2,40.5 8.2,42.1 11.6,42.1 11.6,52.8 13.3,52.8 13.3,42.1 "
   id="polygon2106"
   style="fill:#ffffff;fill-opacity:1;stroke:none" />

      <polygon
   class="o-logo__letter"
   points="20.2,45.8 20.2,40.5 18.6,40.5 18.6,52.8 20.2,52.8 20.2,47.4 25.4,47.4 25.4,52.8 27,52.8 27,40.5 25.4,40.5 25.4,45.8 "
   id="polygon2108"
   style="fill:#ffffff;fill-opacity:1;stroke:none" />

      <polygon
   class="o-logo__letter"
   points="37,42.1 37,40.5 29.4,40.5 29.4,52.8 37,52.8 37,51.3 31,51.3 31,47.4 36.1,47.4 36.1,45.8 31,45.8 31,42.1 "
   id="polygon2110"
   style="fill:#ffffff;fill-opacity:1;stroke:none" />

      <rect
   x="9.3000002"
   y="86.5"
   class="o-logo__letter"
   width="1.6"
   height="11.9"
   id="rect2112"
   style="fill:#ffffff;fill-opacity:1;stroke:none" />

      <polygon
   class="o-logo__letter"
   points="20.4,86.5 20.4,95.2 14.7,86.5 13.3,86.5 13.3,98.4 14.9,98.4 14.9,89.6 20.6,98.4 22,98.4 22,86.5 "
   id="polygon2114"
   style="fill:#ffffff;fill-opacity:1;stroke:none" />

      <path
   class="o-logo__letter"
   d="M 28.8,91.8 27.6,91.6 C 27,91.5 26.5,91.3 26.2,91 c -0.3,-0.3 -0.4,-0.7 -0.4,-1.2 0,-1.2 0.8,-1.9 2.2,-1.9 1.1,0 1.8,0.3 2.5,0.9 l 0.1,0.1 1.1,-1.1 -0.1,-0.1 c -1,-0.9 -2,-1.3 -3.5,-1.3 -2.3,0 -3.8,1.3 -3.8,3.4 0,1 0.3,1.7 0.9,2.3 0.5,0.5 1.3,0.8 2.2,0.9 l 1.3,0.2 c 0.8,0.1 1.1,0.2 1.4,0.5 0.3,0.3 0.5,0.7 0.5,1.3 0,1.2 -0.9,1.9 -2.5,1.9 -1.3,0 -2.1,-0.3 -2.9,-1.2 l -0.1,-0.1 -1.1,1.1 0.1,0.1 c 1.1,1.1 2.3,1.6 4,1.6 2.5,0 4.1,-1.4 4.1,-3.5 0,-1 -0.4,-1.8 -1,-2.4 -0.7,-0.3 -1.3,-0.6 -2.4,-0.7 z"
   id="path2116"
   style="fill:#ffffff;fill-opacity:1;stroke:none" />

      <polygon
   class="o-logo__letter"
   points="37.9,98.4 37.9,88 41.2,88 41.2,86.5 33,86.5 33,88 36.3,88 36.3,98.4 "
   id="polygon2118"
   style="fill:#ffffff;fill-opacity:1;stroke:none" />

      <rect
   x="42.900002"
   y="86.5"
   class="o-logo__letter"
   width="1.6"
   height="11.9"
   id="rect2120"
   style="fill:#ffffff;fill-opacity:1;stroke:none" />

      <polygon
   class="o-logo__letter"
   points="51,98.4 51,88 54.3,88 54.3,86.5 46.1,86.5 46.1,88 49.4,88 49.4,98.4 "
   id="polygon2122"
   style="fill:#ffffff;fill-opacity:1;stroke:none" />

      <path
   class="o-logo__letter"
   d="m 62.3,94.3 c 0,1.6 -1,2.7 -2.6,2.7 -1.5,0 -2.5,-1.1 -2.5,-2.7 v -7.8 h -1.6 v 7.9 c 0,2.4 1.7,4.1 4.1,4.1 2.4,0 4.2,-1.7 4.2,-4.1 v -7.9 h -1.6 z"
   id="path2124"
   style="fill:#ffffff;fill-opacity:1;stroke:none" />

      <polygon
   class="o-logo__letter"
   points="70.1,98.4 70.1,88 73.4,88 73.4,86.5 65.3,86.5 65.3,88 68.5,88 68.5,98.4 "
   id="polygon2126"
   style="fill:#ffffff;fill-opacity:1;stroke:none" />

      <polygon
   class="o-logo__letter"
   points="76.3,93.2 81.3,93.2 81.3,91.7 76.3,91.7 76.3,88 82.2,88 82.2,86.5 74.7,86.5 74.7,98.4 82.2,98.4 82.2,96.9 76.3,96.9 "
   id="polygon2128"
   style="fill:#ffffff;fill-opacity:1;stroke:none" />

    </g>

  </g>
  </g>
</svg>
